<svg width="246" height="50" viewBox="0 0 246 50" fill="none" xmlns="http://www.w3.org/2000/svg">
<path d="M78.4062 36.6875H76.3438C75.1771 36.6875 73.3333 36.4479 70.8125 35.9688L68.4375 47.5312L61 45.875L64.6562 29.625L68.9062 8.375C73.6146 7.54167 78.5833 6.90625 83.8125 6.46875L88.75 27.9062L92.5625 46.7188L84.9688 47.9375L81.625 29.5L78.375 13.9375C77.1875 13.9375 75.9479 14.1354 74.6562 14.5312L71.9688 29.9375L80.0312 30.125L79.0625 36.6562C78.8333 36.6771 78.6146 36.6875 78.4062 36.6875Z" fill="#171923"/>
<path d="M98.8125 17.1562L105.469 16.3125L106.562 21.0625L112.062 16.3125H119.75C120.146 16.3125 120.698 16.6146 121.406 17.2188C122.594 18.1979 123.188 19.0729 123.188 19.8438L122.094 47.0938L115.125 47.6562L115 23.5312C114.75 23.4479 114.406 23.4062 113.969 23.4062C113.531 23.4062 113.125 23.4271 112.75 23.4688C112.396 23.5104 112.01 23.5729 111.594 23.6562C110.615 23.8229 109.812 24.0208 109.188 24.25L106.875 25.0938L106.031 46.7812L99.375 47.2812L98.8125 17.1562Z" fill="#171923"/>
<path d="M139.688 0C139.917 0.8125 140.031 1.72917 140.031 2.75C140.031 3.75 140 4.60417 139.938 5.3125C139.875 6 139.802 6.64583 139.719 7.25C139.51 8.5625 139.271 9.45833 139 9.9375L131.812 9.625C132.167 7.79167 132.344 4.86458 132.344 0.84375L139.688 0ZM139.438 15.75C139.542 17.8958 139.594 19.6979 139.594 21.1562C139.594 22.6146 139.562 24.3229 139.5 26.2812L138.781 47.0312L132.125 47.5938L131.5 16.75L139.438 15.75Z" fill="#171923"/>
<path d="M148.062 17.1562L154.719 16.3125L155.812 21.0625L161.312 16.3125H167.5C168.229 16.3125 168.99 16.7188 169.781 17.5312C170.99 18.7188 171.667 19.8646 171.812 20.9688L177.188 16.3125H184.719C184.99 16.3125 185.49 16.5938 186.219 17.1562C186.969 17.7188 187.479 18.1875 187.75 18.5625C188.042 18.9375 188.188 19.3646 188.188 19.8438L187.094 47.0938L180.125 47.6562L180 23.6875C179.75 23.6042 179.281 23.5625 178.594 23.5625C176.969 23.5625 175.542 23.7917 174.312 24.25L172.125 25.0625L171.156 47.0938L164.438 47.6562L164.312 23.6875C164.062 23.6042 163.594 23.5625 162.906 23.5625C161.156 23.5625 159.667 23.7917 158.438 24.25L156.312 25L155.469 46.8438L148.625 47.2812L148.062 17.1562Z" fill="#171923"/>
<path d="M195.906 26.2188C195.906 23.4271 196.198 21.8125 196.781 21.375C197.365 20.9375 198.021 20.5 198.75 20.0625C199.479 19.6042 200.281 19.1562 201.156 18.7188C202.031 18.2812 202.938 17.8646 203.875 17.4688C204.833 17.0729 205.771 16.7188 206.688 16.4062C208.646 15.7396 210.104 15.4062 211.062 15.4062C212.042 15.4062 212.833 15.4583 213.438 15.5625C214.042 15.6458 214.594 15.7917 215.094 16C216.24 16.4792 216.885 17.1771 217.031 18.0938C217.719 22.4479 218.062 27.6354 218.062 33.6562V35.5L203.094 35.6875V39.75C204.719 40.1458 206.656 40.5104 208.906 40.8438L214.281 41.7188C215.656 41.9271 217.062 42.1667 218.5 42.4375L216.656 49.2812C210.927 48.3854 204.844 46.9375 198.406 44.9375C196.927 44.4583 196.167 43.5938 196.125 42.3438L195.906 26.2188ZM211.031 28.7812C211.031 26.8229 210.833 24.7604 210.438 22.5938C209.604 22.5938 208.938 22.6354 208.438 22.7188C207.938 22.8021 207.438 22.9167 206.938 23.0625C206.438 23.2083 205.927 23.375 205.406 23.5625C204.177 24 203.365 24.375 202.969 24.6875V30.3125L211.031 29.4375V28.7812Z" fill="#171923"/>
<path d="M224.812 42.0312C224.812 42.0312 227.042 41.8958 231.5 41.625C233.562 41.5 235.635 41.2917 237.719 41L237.938 37.0625L226.969 32.75C226.323 32.5 225.833 32.0208 225.5 31.3125C225.167 30.5833 225 30.0104 225 29.5938C225 29.1771 225 28.9167 225 28.8125C225.021 28.6875 225.052 28.4062 225.094 27.9688L225.781 22.0625C225.99 20.3958 226.833 19.2396 228.312 18.5938C229.229 18.1771 230.385 17.8021 231.781 17.4688C234.635 16.8021 236.635 16.3542 237.781 16.125L240.812 15.4688C241.688 15.3021 242.469 15.1562 243.156 15.0312L244.594 22.1875L232.406 24L231.906 27L243.438 32.375C244.833 33.0208 245.427 34.2604 245.219 36.0938L244.375 43.625C244.188 45.2292 242.885 46.3021 240.469 46.8438C237.885 47.5521 235.021 48.0729 231.875 48.4062C228.75 48.7604 226.688 48.9583 225.688 49L224.812 42.0312Z" fill="#171923"/>
<path d="M7.25 37.5L22.4062 39.7812L20.75 46.5938L16.0312 45.9688C9.09375 45.0104 3.88542 44.0625 0.40625 43.125L0 7.09375C7.35417 5.21875 14.3542 3.95833 21 3.3125L22.0938 10.75L7.125 12.4688L7.4375 21.8125L20.875 21.25L20.375 28.5938L7.5 28.1562L7.25 37.5Z" fill="#2B6CB0"/>
<path d="M27.25 35.75L45.0312 12.7812L44.2812 11.3125H43.4375C38.4167 11.3125 33.2083 10.8438 27.8125 9.90625L29.0312 3L33.9062 3.53125C40.7812 4.26042 46.2812 4.67708 50.4062 4.78125L53.25 13.4375L49.4688 18.7188L44.9688 24.7188L40.1875 30.8125L35.625 36.4688L36.0312 37.6875H37C42 37.6875 47.2604 38.1771 52.7812 39.1562L51.625 46.25C49.8125 46.1042 47.9479 45.9271 46.0312 45.7188L34.5938 44.5938C32.7188 44.4271 30.9375 44.2812 29.25 44.1562L27.25 35.75Z" fill="#2B6CB0"/>
</svg>
